# xmcd
#
# Track frame offsets:
#	183
#	10735
#	23248
#	37865
#	48883
#	60693
#	72183
#	82058
#	96383
#	113208
#	127910
#	138755
#	154553
#
# Disc length: 2207 seconds
#
# Revision: 1
# Processed by: cddbd v1.5PL3 Copyright (c) Steve Scherf et al.
# Submitted via: audiograbber 1.82.02
#
DISCID=9d089d0d
DTITLE=Wanda Jackson and Karel Zich - Let´s Have A Party In Prague
DYEAR=1988
DGENRE=
TTITLE0=Let´s Have A Party In Prague
TTITLE1=Long-Legged Guitar Pickin´ Man 
TTITLE2=Losing Game
TTITLE3=My Party
TTITLE4=Right Or Wrong
TTITLE5=Good Bye
TTITLE6=Mean, Mean Man
TTITLE7=Jackson
TTITLE8=It´s My Job
TTITLE9=Summer On My Mind
TTITLE10=Crying In The Chapel
TTITLE11=5-4-3-2-1
TTITLE12=Wheels Of Rock´n Roll  
EXTD=
EXTT0=
EXTT1=
EXTT2=
EXTT3=
EXTT4=
EXTT5=
EXTT6=
EXTT7=
EXTT8=
EXTT9=
EXTT10=
EXTT11=
EXTT12=
PLAYORDER=
